<svg xmlns="http://www.w3.org/2000/svg" width="25" height="24" fill="none" viewBox="0 0 25 24">
  <path fill="#19b7c1" fill-rule="evenodd" d="M17.096 2.2h-9.97C4.483 2.2 2.341 4.347 2.341 7v10c0 2.65 2.142 4.8 4.785 4.8h9.97c2.643 0 4.786-2.15 4.786-4.8V7c0-2.652-2.143-4.8-4.786-4.8zm-9.97 1.6h9.97c1.762 0 3.19 1.432 3.19 3.2v10c0 1.767-1.428 3.2-3.19 3.2h-9.97c-1.762 0-3.19-1.433-3.19-3.2V7c0-1.768 1.428-3.2 3.19-3.2z" clip-rule="evenodd"/>
  <path fill="#19b7c1" fill-rule="evenodd" d="M17.096 9.7c.441 0 .798.357.798.8 0 .407-.304.744-.697.793l-.1.006h-9.97c-.44 0-.798-.358-.798-.8 0-.408.304-.744.698-.794l.1-.006h9.97zM11.115 13.7c.44 0 .797.357.797.8 0 .407-.304.744-.697.793l-.1.006H7.127c-.44 0-.798-.358-.798-.8 0-.408.304-.744.698-.793l.1-.007h3.988z" clip-rule="evenodd"/>
</svg>

