<svg xmlns="http://www.w3.org/2000/svg" width="20" height="20" fill="none" viewBox="0 0 20 20">
    <path fill="#777" fill-rule="evenodd" d="M13.45 1h-6.9c-.177 0-.346.07-.471.195L1.195 6.08C1.07 6.204 1 6.373 1 6.55v6.9c0 .177.07.346.195.471l4.884 4.884c.125.125.294.195.471.195h6.9c.177 0 .346-.07.471-.195l4.884-4.884c.125-.125.195-.294.195-.471v-6.9c0-.177-.07-.346-.195-.471L13.92 1.195C13.796 1.07 13.627 1 13.45 1zM10 6c.34 0 .62.254.662.583l.005.084V10c0 .368-.299.667-.667.667-.34 0-.62-.255-.661-.583L9.333 10V6.667c0-.369.299-.667.667-.667zm.675 7.333c0-.368-.299-.666-.667-.666l-.092.005c-.328.041-.583.321-.583.661 0 .368.299.667.667.667l.092-.005c.329-.041.583-.322.583-.662z" clip-rule="evenodd"/>
</svg>
