<svg xmlns="http://www.w3.org/2000/svg" width="25" height="24" fill="none" viewBox="0 0 25 24">
  <path fill="#979797" fill-rule="evenodd" d="M9.32 9v6c0 .622.676 1.006 1.207.686l4.985-3c.517-.31.517-1.06 0-1.371l-4.985-3c-.531-.32-1.208.064-1.208.685zm1.595 1.412L13.553 12l-2.639 1.588v-3.175z" clip-rule="evenodd"/>
  <path fill="#979797" fill-rule="evenodd" d="M17.096 2.2h-9.97C4.483 2.2 2.341 4.347 2.341 7v10c0 2.65 2.142 4.8 4.785 4.8h9.97c2.643 0 4.786-2.15 4.786-4.8V7c0-2.652-2.143-4.8-4.786-4.8zm-9.97 1.6h9.97c1.762 0 3.19 1.432 3.19 3.2v10c0 1.767-1.428 3.2-3.19 3.2h-9.97c-1.762 0-3.19-1.433-3.19-3.2V7c0-1.768 1.428-3.2 3.19-3.2z" clip-rule="evenodd"/>
</svg>
